<?xml version="1.0" encoding="iso-8859-1"?>
<!-- Generator: Adobe Illustrator 18.0.0, SVG Export Plug-In . SVG Version: 6.00 Build 0)  -->
<!DOCTYPE svg PUBLIC "-//W3C//DTD SVG 1.1//EN" "http://www.w3.org/Graphics/SVG/1.1/DTD/svg11.dtd">
<svg version="1.1" id="Capa_1" xmlns="http://www.w3.org/2000/svg" xmlns:xlink="http://www.w3.org/1999/xlink" x="0px" y="0px"
	 viewBox="0 0 429.48 429.48" style="enable-background:new 0 0 429.48 429.48;" xml:space="preserve">
<g>
	<path d="M214.743,314.491c5.523,0,10-4.477,10-10v-82.45c0-5.523-4.477-10-10-10s-10,4.477-10,10v82.45
		C204.743,310.014,209.22,314.491,214.743,314.491z"/>
	<path d="M389.39,162.452h-22.113V31.014c5.175-0.381,9.258-4.69,9.258-9.963c0-5.523-4.477-10-10-10h-71.746
		c-5.523,0-10,4.477-10,10c0,5.272,4.083,9.581,9.257,9.962v131.438h-42.688V31.014c5.175-0.381,9.258-4.69,9.258-9.963
		c0-5.523-4.477-10-10-10h-71.746c-5.523,0-10,4.477-10,10c0,5.272,4.083,9.581,9.257,9.962v131.438H135.44V31.014
		c5.175-0.381,9.257-4.69,9.257-9.962c0-5.523-4.477-10-10-10H62.953c-5.523,0-10,4.477-10,10c0,5.272,4.083,9.581,9.257,9.962
		v131.438H40.09c-22.106,0-40.09,17.984-40.09,40.09v170.991c0,24.755,20.14,44.896,44.895,44.896
		c12.436,0,24.424-5.229,32.891-14.347c5.697-6.134,13.623-9.652,21.747-9.652h230.416c8.124,0,16.05,3.518,21.747,9.652
		c8.466,9.118,20.455,14.347,32.891,14.347c24.755,0,44.895-20.14,44.895-44.896V202.542
		C429.48,180.436,411.496,162.452,389.39,162.452z M314.046,31.051h33.23v131.401h-6.615v-24.406c0-5.523-4.477-10-10-10
		s-10,4.477-10,10v24.406h-6.615V31.051z M314.046,182.452h6.615v122.04c0,5.523,4.477,10,10,10s10-4.477,10-10v-122.04h6.615
		v123.267c0,9.162-7.454,16.615-16.615,16.615s-16.615-7.454-16.615-16.615V182.452z M198.128,31.051h33.23v131.401h-33.23V31.051z
		 M198.128,182.452h33.23v123.267c0,9.162-7.454,16.615-16.615,16.615s-16.615-7.454-16.615-16.615V182.452z M82.21,31.051h33.23
		v131.401h-6.615v-61.905c0-5.523-4.477-10-10-10s-10,4.477-10,10v61.905H82.21V31.051z M82.21,182.452h6.615v122.04
		c0,5.523,4.477,10,10,10s10-4.477,10-10v-122.04h6.615v123.267c0,9.162-7.454,16.615-16.615,16.615S82.21,314.88,82.21,305.719
		V182.452z M409.48,373.533c0,13.728-11.168,24.896-24.895,24.896c-6.995,0-13.471-2.826-18.235-7.956
		c-9.468-10.196-22.736-16.043-36.402-16.043H99.532c-13.666,0-26.934,5.847-36.402,16.043c-4.764,5.13-11.24,7.956-18.235,7.956
		C31.168,398.429,20,387.261,20,373.533V202.542c0-11.078,9.013-20.09,20.09-20.09h22.12v123.267
		c0,20.189,16.426,36.615,36.615,36.615s36.615-16.426,36.615-36.615V182.452h42.688v123.267c0,20.189,16.426,36.615,36.615,36.615
		s36.615-16.426,36.615-36.615V182.452h42.688v123.267c0,20.189,16.426,36.615,36.615,36.615s36.615-16.426,36.615-36.615V182.452
		h22.113c11.078,0,20.09,9.013,20.09,20.09V373.533z"/>
</g>
<g>
</g>
<g>
</g>
<g>
</g>
<g>
</g>
<g>
</g>
<g>
</g>
<g>
</g>
<g>
</g>
<g>
</g>
<g>
</g>
<g>
</g>
<g>
</g>
<g>
</g>
<g>
</g>
<g>
</g>
</svg>
