<?xml version="1.0" encoding="iso-8859-1"?>
<!-- Generator: Adobe Illustrator 19.0.0, SVG Export Plug-In . SVG Version: 6.00 Build 0)  -->
<svg version="1.1" id="Layer_1" xmlns="http://www.w3.org/2000/svg" xmlns:xlink="http://www.w3.org/1999/xlink" x="0px" y="0px"
	 viewBox="0 0 500.4 500.4" style="enable-background:new 0 0 500.4 500.4;" xml:space="preserve">
<g>
	<g>
		<path d="M441.2,382.6c-14.8,0-28,5.6-38.4,14.4l-87.6-88c-0.8-0.8-1.2-0.8-2-1.2c14-15.2,22.8-35.6,22.8-58
			c0-30.4-16-57.2-40-72.4l35.6-62.4c8,4,16.8,6,26.4,6c33.6,0,60.8-27.2,60.8-60.8c0-33.6-27.6-60-61.2-60
			c-33.6,0-60.8,27.2-60.8,60.8c0,21.2,10.8,40,27.6,50.8l-35.6,62.4c-11.6-6-24.8-9.6-38.8-9.6c-22,0-42.4,8.4-57.6,22.4L144,137.8
			c5.2-6.8,8.4-15.2,8.4-24.4c0-21.6-17.6-39.2-39.2-39.2C91.6,74.2,74,91.8,74,113.4c0,21.6,17.6,39.2,39.2,39.2
			c9.6,0,18.4-3.6,25.2-9.2l48.4,48.8c-14,15.2-22.8,35.6-22.8,58c0,20,6.8,38.4,18.4,52.8l-80,69.6c-10.8-10.4-25.6-16.8-42-16.8
			C27.2,355.8,0,383,0,416.2s27.2,60.4,60.4,60.4s60.4-27.2,60.4-60.4c0-14.4-5.2-27.6-13.2-38l80-69.2
			c15.6,16.4,37.6,26.8,62.4,26.8c22.8,0,43.2-8.8,58.8-23.2c0,0.8,0.4,1.6,1.2,2l87.6,88c-9.2,10.4-14.8,24-14.8,38.8
			c0,32.4,26.4,58.8,58.8,58.8c32.4,0,58.8-26.4,58.8-58.8C500,409,473.6,382.6,441.2,382.6z M304.8,61c0-29.2,23.6-52.8,52.8-52.8
			c29.2,0,52.8,23.6,52.8,52.8s-23.6,52.8-52.8,52.8C328.4,113.8,304.8,89.8,304.8,61z M113.2,144.6c-17.2,0-31.2-14-31.2-31.2
			c0-17.2,14-31.2,31.2-31.2s31.2,14,31.2,31.2C144.4,130.6,130.4,144.6,113.2,144.6z M112.8,416.6c0.4,28.8-23.2,52.4-52.4,52.4
			C31.6,469,8,445.4,8,416.6s23.6-52.4,52.4-52.4C89.2,364.2,112.8,387.8,112.8,416.6z M250,328.2c-42.8,0-78-34.8-78-78
			s35.2-78,78-78s78,35.2,78,78S292.8,328.2,250,328.2z M441.2,492.2c-28,0-50.8-22.8-50.8-50.8s22.8-50.8,50.8-50.8
			s50.8,22.8,50.8,50.8S469.2,492.2,441.2,492.2z"/>
	</g>
</g>
<g>
	<g>
		<path d="M309.6,220.6c-0.8-2-3.2-2.8-5.2-1.6c-2,0.8-2.8,3.2-1.6,5.2c4,8,6,16.8,6,26.4c0,32.4-26.4,58.4-58.4,58.4
			s-58.8-26.4-58.8-58.8c0-32.4,26.4-58.4,58.4-58.4c12,0,23.6,3.6,33.6,10.4c2,1.2,4.4,0.8,5.6-0.8c1.2-2,0.8-4.4-0.8-5.6
			c-11.2-7.6-24.4-12-38-12c-36.8,0-66.4,30-66.4,66.4c0,36.8,30,66.4,66.4,66.4c36.8,0,66.4-30,66.4-66.4
			C316.4,239.8,314,229.8,309.6,220.6z"/>
	</g>
</g>
<g>
	<g>
		<path d="M394.8,43.4c-0.8-2-3.2-2.8-5.2-2s-2.8,3.2-2,5.2c2,4.4,3.2,9.2,3.2,14.4c0,18.4-14.8,33.2-33.2,33.2
			c-18.4,0-33.2-14.8-33.2-33.2c0-18.4,14.8-33.2,33.2-33.2c6.8,0,13.2,2,18.4,5.6c2,1.2,4.4,0.8,5.6-1.2s0.8-4.4-1.2-5.6
			c-6.8-4.4-14.8-6.8-22.8-6.8c-22.8,0-41.2,18.4-41.2,41.2s18.4,41.2,41.2,41.2c22.8,0,41.2-18.4,41.2-41.2
			C398.8,55,397.6,49,394.8,43.4z"/>
	</g>
</g>
<g>
	<g>
		<path d="M476.4,424.2c-0.8-2-3.2-2.8-5.2-2s-2.8,3.2-2,5.2c2,4.4,3.2,8.8,3.2,13.6c0,17.2-14,31.2-31.2,31.2S410,458.2,410,441
			s14-31.2,31.2-31.2c5.2,0,10.4,1.2,14.8,3.6c2,1.2,4.4,0.4,5.6-1.6s0.4-4.4-1.6-5.6c-5.6-3.2-12-4.8-18.8-4.8
			c-21.6,0-39.2,17.6-39.2,39.2c0,21.6,17.6,39.2,39.2,39.2c21.6,0,39.2-17.6,39.2-39.2C480.4,435.4,479.2,429.8,476.4,424.2z"/>
	</g>
</g>
<g>
	<g>
		<path d="M98.4,401.4c-0.8-2.4-2.8-3.2-5.2-2.4c-2,0.8-3.2,3.2-2.4,5.2c1.6,4,2.4,8,2.4,12.4c0,18-14.8,32.8-32.8,32.8
			s-32.8-14.8-32.8-32.8s14.8-32.8,32.8-32.8c5.6,0,10.8,1.2,15.6,4c2,1.2,4.4,0.4,5.6-1.6c1.2-2,0.4-4.4-1.6-5.6
			c-6-3.2-12.8-4.8-19.6-4.8c-22.4,0-40.8,18.4-40.8,40.8c0,22.4,18.4,40.8,40.8,40.8c22.8,0,40.8-18.4,40.8-40.8
			C101.2,411.4,100.4,406.2,98.4,401.4z"/>
	</g>
</g>
<g>
	<g>
		<path d="M128.8,109.4c-2.4,0-4,1.6-4,4c0,6.4-5.2,11.6-11.6,11.6s-11.2-5.2-11.2-11.6c0-6.4,5.2-11.6,11.6-11.6c2.4,0,4-1.6,4-4
			c0-2.4-1.6-4-4-4c-10.8,0-19.6,8.8-19.6,19.6s8.8,19.6,19.6,19.6c10.8,0,19.6-8.8,19.6-19.6C132.8,111.4,130.8,109.4,128.8,109.4z
			"/>
	</g>
</g>
<g>
</g>
<g>
</g>
<g>
</g>
<g>
</g>
<g>
</g>
<g>
</g>
<g>
</g>
<g>
</g>
<g>
</g>
<g>
</g>
<g>
</g>
<g>
</g>
<g>
</g>
<g>
</g>
<g>
</g>
</svg>
