<?xml version="1.0" encoding="iso-8859-1"?>
<!-- Generator: Adobe Illustrator 19.0.0, SVG Export Plug-In . SVG Version: 6.00 Build 0)  -->
<svg version="1.1" id="Capa_1" xmlns="http://www.w3.org/2000/svg" xmlns:xlink="http://www.w3.org/1999/xlink" x="0px" y="0px"
	 viewBox="0 0 322.531 322.531" style="enable-background:new 0 0 322.531 322.531;" xml:space="preserve">
<path d="M295.01,302.647V4.884h-15v83.959h-81.92v-68.75h21.069v-15H198.09h-69.898h-21.069v15h21.069v68.75H42.522V4.884h-15
	v297.764H0v15h322.531v-15H295.01z M143.191,20.093h39.898v68.75h-39.898V20.093z M187.863,138.017
	c26.366,10.289,43.402,35.184,43.402,63.423c0,37.564-30.561,68.125-68.125,68.125s-68.125-30.561-68.125-68.125
	c0-28.239,17.037-53.134,43.402-63.423l4.773-1.863v-32.311h39.898v32.311L187.863,138.017z M42.522,103.843h85.669v22.234
	c-13.37,6.194-24.812,15.783-33.307,27.964c-9.728,13.948-14.869,30.338-14.869,47.398c0,45.835,37.29,83.125,83.125,83.125
	c45.835,0,83.125-37.29,83.125-83.125c0-17.06-5.142-33.45-14.869-47.398c-8.495-12.181-19.938-21.77-33.307-27.964v-22.234h81.92
	v198.804H42.522V103.843z"/>
<g>
</g>
<g>
</g>
<g>
</g>
<g>
</g>
<g>
</g>
<g>
</g>
<g>
</g>
<g>
</g>
<g>
</g>
<g>
</g>
<g>
</g>
<g>
</g>
<g>
</g>
<g>
</g>
<g>
</g>
</svg>
