<?xml version="1.0" encoding="iso-8859-1"?>
<!-- Generator: Adobe Illustrator 19.0.0, SVG Export Plug-In . SVG Version: 6.00 Build 0)  -->
<svg version="1.1" id="Capa_1" xmlns="http://www.w3.org/2000/svg" xmlns:xlink="http://www.w3.org/1999/xlink" x="0px" y="0px"
	 viewBox="0 0 356.519 356.519" style="enable-background:new 0 0 356.519 356.519;" xml:space="preserve">
<g>
	<path d="M326.996,305.989v-92.354h10.006v-91.25h-33.521c-1.408-3.946-2.989-7.837-4.755-11.632l34.112-34.112l-8.398-8.398
		l2.513-2.513c6.481-6.48,10.05-15.097,10.05-24.262c0-9.166-3.569-17.782-10.05-24.263l-0.383-0.383
		c-6.481-6.481-15.098-10.05-24.263-10.05s-17.782,3.569-24.262,10.05l-2.512,2.512l-8.399-8.399l-34.109,34.11
		c-24.083-11.237-50.649-15.106-77.192-11.187c-28.95,4.273-55.219,17.5-75.969,38.25c-14.198,14.198-25.12,31.49-31.833,50.276
		H14.514v91.25h15.009v92.354C12.692,309.466,0,324.401,0,342.248v7.5h74.046v-7.5c0-17.846-12.692-32.782-29.523-36.259v-92.354
		h3.506c6.713,18.787,17.635,36.079,31.833,50.276c25.616,25.616,59.675,39.724,95.901,39.724s70.285-14.108,95.901-39.724
		c14.196-14.195,25.12-31.49,31.83-50.276h8.501v92.354c-16.831,3.477-29.523,18.413-29.523,36.259v7.5h74.046v-7.5
		C356.519,324.401,343.827,309.466,326.996,305.989z M288.65,27.428c3.648-3.648,8.498-5.657,13.656-5.657
		c5.159,0,10.008,2.009,13.656,5.657l0.383,0.383c3.648,3.648,5.657,8.498,5.657,13.656c0,5.158-2.009,10.008-5.657,13.656
		l-2.512,2.512L286.138,29.94L288.65,27.428z M57.731,334.748H16.315c3.074-8.463,11.196-14.523,20.708-14.523
		S54.657,326.285,57.731,334.748z M90.469,82.714c18.455-18.455,41.814-30.218,67.554-34.018c25.246-3.728,50.513,0.46,73.07,12.109
		l4.87,2.515l31.17-31.171l44.492,44.492l-31.171,31.171l2.514,4.869c1.63,3.157,3.121,6.401,4.469,9.704H64.08
		C70.12,107.631,79.119,94.064,90.469,82.714z M29.514,137.384h292.488v61.25H29.514V137.384z M261.059,253.304
		c-22.783,22.783-53.075,35.331-85.295,35.331s-62.512-12.547-85.295-35.331c-11.35-11.35-20.349-24.917-26.388-39.669h223.362
		C281.405,228.386,272.407,241.955,261.059,253.304z M298.787,334.748c3.074-8.463,11.197-14.523,20.708-14.523
		s17.634,6.061,20.708,14.523H298.787z"/>
	<rect x="43.759" y="152.259" width="15" height="31"/>
	<rect x="168.759" y="152.259" width="15" height="31"/>
	<rect x="291.759" y="152.259" width="15" height="31"/>
</g>
<g>
</g>
<g>
</g>
<g>
</g>
<g>
</g>
<g>
</g>
<g>
</g>
<g>
</g>
<g>
</g>
<g>
</g>
<g>
</g>
<g>
</g>
<g>
</g>
<g>
</g>
<g>
</g>
<g>
</g>
</svg>
