<?xml version="1.0" encoding="iso-8859-1"?>
<!-- Generator: Adobe Illustrator 19.0.0, SVG Export Plug-In . SVG Version: 6.00 Build 0)  -->
<svg version="1.1" id="Layer_1" xmlns="http://www.w3.org/2000/svg" xmlns:xlink="http://www.w3.org/1999/xlink" x="0px" y="0px"
	 viewBox="0 0 512 512" style="enable-background:new 0 0 512 512;" xml:space="preserve">
<g>
	<g>
		<path d="M134.851,33.172H31.008C13.911,33.172,0,47.082,0,64.18s13.911,31.008,31.008,31.008c5.975,0,10.817-4.843,10.817-10.817
			s-4.842-10.817-10.817-10.817c-5.169,0-9.375-4.206-9.375-9.375c0-5.169,4.206-9.375,9.375-9.375h103.842
			c5.169,0,9.375,4.206,9.375,9.375c0,5.169-4.206,9.375-9.375,9.375c-5.975,0-10.817,4.843-10.817,10.817
			s4.842,10.817,10.817,10.817c17.098,0,31.008-13.911,31.008-31.008S151.949,33.172,134.851,33.172z"/>
	</g>
</g>
<g>
	<g>
		<path d="M134.851,73.555c-5.975,0-10.817,4.843-10.817,10.817V416.09c0,22.665-18.439,41.104-41.104,41.104
			c-22.665,0-41.104-18.439-41.104-41.104V84.372c0-5.974-4.842-10.817-10.817-10.817c-5.975,0-10.817,4.843-10.817,10.817V416.09
			c0,34.594,28.144,62.738,62.738,62.738c34.594,0,62.738-28.144,62.738-62.738V84.372
			C145.668,78.398,140.826,73.555,134.851,73.555z"/>
	</g>
</g>
<g>
	<g>
		<path d="M39.662,73.555h-8.654c-5.975,0-10.817,4.843-10.817,10.817s4.842,10.817,10.817,10.817h8.654
			c5.975,0,10.817-4.843,10.817-10.817S45.637,73.555,39.662,73.555z"/>
	</g>
</g>
<g>
	<g>
		<path d="M134.851,73.555H82.93c-5.975,0-10.817,4.843-10.817,10.817s4.842,10.817,10.817,10.817h51.921
			c5.975,0,10.817-4.843,10.817-10.817S140.826,73.555,134.851,73.555z"/>
	</g>
</g>
<g>
	<g>
		<path d="M307.921,33.172H204.079c-17.098,0-31.008,13.911-31.008,31.008s13.911,31.008,31.008,31.008
			c5.975,0,10.817-4.843,10.817-10.817s-4.842-10.817-10.817-10.817c-5.169,0-9.375-4.206-9.375-9.375
			c0-5.169,4.206-9.375,9.375-9.375h103.842c5.169,0,9.375,4.206,9.375,9.375c0,5.169-4.206,9.375-9.375,9.375
			c-5.975,0-10.817,4.843-10.817,10.817s4.842,10.817,10.817,10.817c17.098,0,31.008-13.911,31.008-31.008
			S325.019,33.172,307.921,33.172z"/>
	</g>
</g>
<g>
	<g>
		<path d="M307.921,73.555c-5.975,0-10.817,4.843-10.817,10.817V416.09c0,22.665-18.439,41.104-41.104,41.104
			c-22.665,0-41.104-18.439-41.104-41.104V84.372c0-5.974-4.842-10.817-10.817-10.817c-5.975,0-10.817,4.843-10.817,10.817V416.09
			c0,34.594,28.144,62.738,62.738,62.738s62.738-28.144,62.738-62.738V84.372C318.738,78.398,313.896,73.555,307.921,73.555z"/>
	</g>
</g>
<g>
	<g>
		<path d="M212.732,73.555h-8.654c-5.975,0-10.817,4.843-10.817,10.817s4.842,10.817,10.817,10.817h8.654
			c5.975,0,10.817-4.843,10.817-10.817S218.708,73.555,212.732,73.555z"/>
	</g>
</g>
<g>
	<g>
		<path d="M307.921,73.555H256c-5.975,0-10.817,4.843-10.817,10.817S250.025,95.189,256,95.189h51.921
			c5.975,0,10.817-4.843,10.817-10.817S313.896,73.555,307.921,73.555z"/>
	</g>
</g>
<g>
	<g>
		<path d="M480.992,33.172H377.149c-17.098,0-31.008,13.911-31.008,31.008s13.911,31.008,31.008,31.008
			c5.975,0,10.817-4.843,10.817-10.817s-4.842-10.817-10.817-10.817c-5.169,0-9.375-4.206-9.375-9.375
			c0-5.169,4.206-9.375,9.375-9.375h103.842c5.169,0,9.375,4.206,9.375,9.375c0,5.169-4.206,9.375-9.375,9.375
			c-5.975,0-10.817,4.843-10.817,10.817s4.842,10.817,10.817,10.817C498.089,95.189,512,81.278,512,64.18
			S498.089,33.172,480.992,33.172z"/>
	</g>
</g>
<g>
	<g>
		<path d="M480.992,73.555c-5.975,0-10.817,4.843-10.817,10.817V416.09c0,22.665-18.439,41.104-41.104,41.104
			c-22.665,0-41.104-18.439-41.104-41.104V84.372c0-5.974-4.842-10.817-10.817-10.817s-10.817,4.843-10.817,10.817V416.09
			c0,34.594,28.144,62.738,62.738,62.738s62.738-28.144,62.738-62.738V84.372C491.808,78.398,486.967,73.555,480.992,73.555z"/>
	</g>
</g>
<g>
	<g>
		<path d="M385.803,73.555h-8.654c-5.975,0-10.817,4.843-10.817,10.817s4.842,10.817,10.817,10.817h8.654
			c5.975,0,10.817-4.843,10.817-10.817S391.778,73.555,385.803,73.555z"/>
	</g>
</g>
<g>
	<g>
		<path d="M480.992,73.555H429.07c-5.975,0-10.817,4.843-10.817,10.817s4.842,10.817,10.817,10.817h51.921
			c5.975,0,10.817-4.843,10.817-10.817S486.967,73.555,480.992,73.555z"/>
	</g>
</g>
<g>
	<g>
		<path d="M134.851,226.434H31.008c-5.975,0-10.817,4.843-10.817,10.817s4.842,10.817,10.817,10.817h103.842
			c5.975,0,10.817-4.843,10.817-10.817S140.826,226.434,134.851,226.434z"/>
	</g>
</g>
<g>
	<g>
		<path d="M307.921,226.434H204.079c-5.975,0-10.817,4.843-10.817,10.817s4.842,10.817,10.817,10.817h103.842
			c5.975,0,10.817-4.843,10.817-10.817S313.896,226.434,307.921,226.434z"/>
	</g>
</g>
<g>
	<g>
		<path d="M480.992,226.434H377.149c-5.975,0-10.817,4.843-10.817,10.817s4.842,10.817,10.817,10.817h103.842
			c5.975,0,10.817-4.843,10.817-10.817S486.967,226.434,480.992,226.434z"/>
	</g>
</g>
<g>
</g>
<g>
</g>
<g>
</g>
<g>
</g>
<g>
</g>
<g>
</g>
<g>
</g>
<g>
</g>
<g>
</g>
<g>
</g>
<g>
</g>
<g>
</g>
<g>
</g>
<g>
</g>
<g>
</g>
</svg>
