<?xml version="1.0" encoding="iso-8859-1"?>
<!-- Generator: Adobe Illustrator 19.0.0, SVG Export Plug-In . SVG Version: 6.00 Build 0)  -->
<svg version="1.1" id="Capa_1" xmlns="http://www.w3.org/2000/svg" xmlns:xlink="http://www.w3.org/1999/xlink" x="0px" y="0px"
	 viewBox="0 0 343.692 343.692" style="enable-background:new 0 0 343.692 343.692;" xml:space="preserve">
<g>
	<path d="M335.253,127.515L160.901,29.904l-8.565-4.792c-7.828-4.43-16.786-6.772-25.905-6.772
		c-19.642,0-36.892,10.345-46.143,27.671L12.305,173.333c-17.261,32.329-16.314,70.394,2.534,101.824
		c18.848,31.431,51.98,50.195,88.629,50.195h45.941c36.648,0,69.781-18.764,88.629-50.194c18.848-31.43,19.795-69.495,2.534-101.824
		l-28.845-54.024c-0.151-0.284-0.612-1.146,0.013-2.189c0.441-0.734,1.527-1.551,2.876-0.986l106.946,40.303
		c1.917,0.781,3.938,1.177,6.011,1.177c2.606,0,5.199-0.648,7.506-1.878l0.171-0.091c5.229-2.787,8.463-8.199,8.441-14.125
		C343.67,135.636,340.44,130.281,335.253,127.515z M328.187,142.413l-0.17,0.091c-0.247,0.131-0.548,0.145-0.805,0.038
		l-106.944-40.303c-2.136-0.874-4.356-1.316-6.6-1.316c-5.986,0-11.654,3.25-14.792,8.483c-3.127,5.215-3.27,11.558-0.382,16.968
		l28.845,54.024c14.756,27.636,13.947,60.176-2.166,87.044s-44.436,42.909-75.765,42.909h-45.941
		c-31.329,0-59.652-16.041-75.765-42.909s-16.922-59.408-2.166-87.044L93.519,53.077c6.598-12.358,18.901-19.736,32.911-19.736
		c6.535,0,12.938,1.669,18.549,4.845l183.024,102.462l0.184,0.1c0.138,0.072,0.502,0.263,0.504,0.829
		C328.694,142.142,328.331,142.336,328.187,142.413z"/>
	<path d="M164.063,185.057c-7.498,0-10.909-1.857-15.228-4.208c-4.938-2.688-11.084-6.035-22.401-6.035
		c-11.315,0-17.46,3.346-22.398,6.035c-4.318,2.352-7.729,4.208-15.225,4.208c-7.499,0-10.914-1.856-15.236-4.208
		c-4.51-2.453-10.124-5.505-19.75-5.967l-4.741-0.228l-5.2,9.74c-11.975,22.426-11.318,48.833,1.758,70.637
		c13.075,21.804,36.06,34.821,61.484,34.821h38.625c25.425,0,48.409-13.017,61.483-34.821c13.076-21.804,13.733-48.21,1.76-70.637
		l-5.2-9.74l-4.74,0.228c-9.628,0.462-15.242,3.515-19.753,5.967C174.978,183.2,171.563,185.057,164.063,185.057z M195.209,190.423
		l0.553,1.036c9.469,17.735,8.949,38.616-1.392,55.858c-10.339,17.242-28.514,27.535-48.619,27.535h-38.625
		c-20.105,0-38.28-10.293-48.62-27.536c-10.34-17.242-10.86-38.124-1.39-55.858l0.553-1.035c3.452,0.728,5.879,2.048,8.74,3.604
		c4.94,2.687,11.088,6.03,22.402,6.03c11.315,0,17.46-3.346,22.398-6.035c4.318-2.352,7.729-4.208,15.225-4.208
		c7.498,0,10.909,1.857,15.228,4.208c4.938,2.688,11.084,6.035,22.4,6.035c11.315,0,17.463-3.343,22.404-6.03
		C189.328,192.471,191.756,191.151,195.209,190.423z"/>
</g>
<g>
</g>
<g>
</g>
<g>
</g>
<g>
</g>
<g>
</g>
<g>
</g>
<g>
</g>
<g>
</g>
<g>
</g>
<g>
</g>
<g>
</g>
<g>
</g>
<g>
</g>
<g>
</g>
<g>
</g>
</svg>
