<?xml version="1.0" encoding="iso-8859-1"?>
<!-- Generator: Adobe Illustrator 19.0.0, SVG Export Plug-In . SVG Version: 6.00 Build 0)  -->
<svg version="1.1" id="Capa_1" xmlns="http://www.w3.org/2000/svg" xmlns:xlink="http://www.w3.org/1999/xlink" x="0px" y="0px"
	 viewBox="0 0 368.554 368.554" style="enable-background:new 0 0 368.554 368.554;" xml:space="preserve">
<g>
	<path d="M223.652,159.783V46.338L251.206,0H117.348l27.554,46.338v113.445c-41.34,16.144-68.75,55.924-68.75,100.646
		c0,59.62,48.505,108.125,108.125,108.125s108.125-48.505,108.125-108.125C292.402,215.708,264.992,175.927,223.652,159.783z
		 M184.277,353.554c-51.349,0-93.125-41.776-93.125-93.125c0-40.083,25.57-75.558,63.627-88.273l5.123-1.711V42.215L143.719,15
		h81.116l-16.183,27.215v128.229l5.123,1.711c38.057,12.716,63.627,48.19,63.627,88.273
		C277.402,311.778,235.626,353.554,184.277,353.554z"/>
	<path d="M248.719,228.731l-1.865-3.786l-4.204-0.371c-1.748-0.154-3.479-0.292-5.447-0.292c-20.187,0-30.552,8.936-39.697,16.819
		c-8.204,7.073-15.289,13.181-29.902,13.181c-14.617,0-21.709-6.109-29.922-13.182c-3.09-2.661-6.286-5.414-9.969-7.92l-8.1-5.513
		l-3.207,9.259c-2.657,7.672-4.004,15.579-4.004,23.502c0,39.632,32.243,71.875,71.875,71.875s71.875-32.243,71.875-71.875
		C256.152,249.405,253.651,238.74,248.719,228.731z M184.277,317.304c-31.361,0-56.875-25.514-56.875-56.875
		c0-2.635,0.19-5.271,0.568-7.896c9.133,7.866,19.504,16.75,39.633,16.75c20.186,0,30.551-8.936,39.696-16.819
		c8.17-7.043,15.23-13.131,29.723-13.18c2.742,6.768,4.129,13.861,4.129,21.146C241.152,291.79,215.638,317.304,184.277,317.304z"/>
</g>
<g>
</g>
<g>
</g>
<g>
</g>
<g>
</g>
<g>
</g>
<g>
</g>
<g>
</g>
<g>
</g>
<g>
</g>
<g>
</g>
<g>
</g>
<g>
</g>
<g>
</g>
<g>
</g>
<g>
</g>
</svg>
