<?xml version="1.0" encoding="iso-8859-1"?>
<!-- Generator: Adobe Illustrator 19.0.0, SVG Export Plug-In . SVG Version: 6.00 Build 0)  -->
<svg version="1.1" id="Capa_1" xmlns="http://www.w3.org/2000/svg" xmlns:xlink="http://www.w3.org/1999/xlink" x="0px" y="0px"
	 viewBox="0 0 343.645 343.645" style="enable-background:new 0 0 343.645 343.645;" xml:space="preserve">
<g>
	<path d="M50.565,0v343.645h242.514V0H50.565z M278.079,15v172.846c-11.077-2.021-17.704-8.522-25.156-15.867
		c-9.914-9.77-21.15-20.843-43.186-20.843c-22.034,0-33.271,11.073-43.185,20.843c-8.998,8.867-16.771,16.526-32.656,16.526
		c-15.884,0-23.654-7.658-32.651-16.526c-8.719-8.594-18.465-18.192-35.68-20.379V15H278.079z M65.565,328.645V166.797
		c11.074,2.021,17.699,8.522,25.15,15.866c9.912,9.77,21.147,20.843,43.181,20.843c22.035,0,33.271-11.073,43.186-20.843
		c8.998-8.868,16.77-16.526,32.655-16.526s23.657,7.658,32.656,16.526c8.721,8.594,18.468,18.192,35.686,20.379v125.602H65.565z"/>
	<rect x="195.271" y="31.243" width="63.873" height="15"/>
	<rect x="223.314" y="60.715" width="35.829" height="15"/>
	<rect x="195.271" y="90.187" width="63.873" height="15"/>
	<rect x="223.314" y="119.658" width="35.829" height="15"/>
</g>
<g>
</g>
<g>
</g>
<g>
</g>
<g>
</g>
<g>
</g>
<g>
</g>
<g>
</g>
<g>
</g>
<g>
</g>
<g>
</g>
<g>
</g>
<g>
</g>
<g>
</g>
<g>
</g>
<g>
</g>
</svg>
