<?xml version="1.0" encoding="iso-8859-1"?>
<!-- Generator: Adobe Illustrator 19.0.0, SVG Export Plug-In . SVG Version: 6.00 Build 0)  -->
<svg version="1.1" id="Layer_1" xmlns="http://www.w3.org/2000/svg" xmlns:xlink="http://www.w3.org/1999/xlink" x="0px" y="0px"
	 viewBox="0 0 512.001 512.001" style="enable-background:new 0 0 512.001 512.001;" xml:space="preserve">
<g>
	<g>
		<path d="M422.025,437.947L319.258,211.006V73.361c16.278-3.969,28.4-18.665,28.4-36.149C347.658,16.693,330.964,0,310.446,0
			H201.556c-20.519,0-37.212,16.693-37.212,37.212c0,17.483,12.121,32.18,28.4,36.149v137.645l-46.338,102.33
			c-0.357,0.596-0.654,1.231-0.864,1.908l-22.03,48.65c-0.558,0.818-0.974,1.737-1.231,2.72l-21.752,48.035
			c-0.719,0.979-1.244,2.106-1.51,3.333l-9.041,19.966c-7.973,15.945-7.159,34.51,2.191,49.703
			c9.384,15.247,25.676,24.35,43.579,24.35h240.506c17.904,0,34.195-9.102,43.579-24.35
			C429.183,472.457,429.998,453.894,422.025,437.947z M181.968,37.212c0-10.8,8.788-19.588,19.588-19.588h108.891
			c10.8,0,19.588,8.788,19.588,19.588c0,10.8-8.787,19.588-19.588,19.588h-108.89C190.755,56.8,181.968,48.012,181.968,37.212z
			 M159.715,326.668h12.899l-15.113,33.373h-12.899L159.715,326.668z M190.705,360.043h-13.857l15.114-33.374h21.911
			c4.867,0,8.812-3.944,8.812-8.812s-3.945-8.812-8.812-8.812h-13.929l3.356-7.413h105.406l70.837,156.429
			c0.052,0.114,0.106,0.227,0.162,0.338l0.277,0.549c0.315,0.623,1.052,2.082-0.172,4.068c-1.223,1.986-2.857,1.986-3.554,1.986
			H135.747c-0.698,0-2.331,0-3.554-1.986c-1.222-1.984-0.485-3.444-0.169-4.07l0.278-0.553c0.055-0.109,0.108-0.221,0.159-0.331
			l13.311-29.395h21.766c4.867,0,8.812-3.944,8.812-8.812s-3.945-8.812-8.812-8.812h-13.785l15.114-33.375h21.838
			c4.867,0,8.812-3.944,8.812-8.812S195.57,360.043,190.705,360.043z M136.62,377.667h12.899l-15.113,33.375h-12.899L136.62,377.667
			z M404.824,478.413c-6.152,9.995-16.832,15.963-28.569,15.963H135.747c-11.737,0-22.417-5.968-28.569-15.963
			c-6.152-9.997-6.668-22.22-1.379-32.698c0.055-0.11,0.109-0.222,0.16-0.335l7.568-16.714h12.899l-9.943,21.958l-0.195,0.385
			c-3.487,6.911-3.159,14.655,0.897,21.244c4.057,6.591,10.823,10.373,18.563,10.373h240.506c7.739,0,14.506-3.78,18.563-10.371
			c4.058-6.591,4.384-14.336,0.895-21.25l-0.194-0.383l-73.104-161.436c-1.428-3.152-4.568-5.177-8.029-5.177H197.614
			c-3.46,0-6.6,2.026-8.027,5.177l-8.993,19.859h-12.899l15.114-33.375h54.228c4.867,0,8.812-3.944,8.812-8.812
			s-3.945-8.812-8.812-8.812h-46.248l18.793-41.501c0.517-1.142,0.785-2.38,0.785-3.635V74.424h91.266v138.484
			c0,1.254,0.268,2.493,0.785,3.635L406.043,445.38c0.05,0.113,0.105,0.224,0.16,0.335
			C411.491,456.193,410.974,468.416,404.824,478.413z"/>
	</g>
</g>
<g>
</g>
<g>
</g>
<g>
</g>
<g>
</g>
<g>
</g>
<g>
</g>
<g>
</g>
<g>
</g>
<g>
</g>
<g>
</g>
<g>
</g>
<g>
</g>
<g>
</g>
<g>
</g>
<g>
</g>
</svg>
