<?xml version="1.0" encoding="iso-8859-1"?>
<!-- Generator: Adobe Illustrator 19.0.0, SVG Export Plug-In . SVG Version: 6.00 Build 0)  -->
<svg version="1.1" id="Layer_1" xmlns="http://www.w3.org/2000/svg" xmlns:xlink="http://www.w3.org/1999/xlink" x="0px" y="0px"
	 viewBox="0 0 512.001 512.001" style="enable-background:new 0 0 512.001 512.001;" xml:space="preserve">
<g>
	<g>
		<path d="M409.186,400.189L319.76,245.834c-4.852-8.374-7.417-17.916-7.417-27.595V53.936c3.919-1.462,7.51-3.799,10.436-6.866
			c5.307-5.561,8.028-12.861,7.667-20.554C329.747,11.647,317.302,0,302.118,0h-92.234c-15.185,0-27.629,11.647-28.33,26.515
			c-0.36,7.694,2.361,14.994,7.668,20.554c2.926,3.067,6.515,5.404,10.436,6.866V218.24c0,9.679-2.563,19.221-7.417,27.595
			L102.816,400.19c-13.509,23.317-13.541,51.178-0.084,74.525c13.458,23.347,37.579,37.286,64.527,37.286h177.484
			c26.949,0,51.07-13.939,64.527-37.286C422.726,451.367,422.694,423.506,409.186,400.189z M392.437,465.012
			c-9.948,17.257-27.775,27.559-47.694,27.559H167.257c-19.918,0-37.747-10.302-47.694-27.559
			c-9.946-17.257-9.923-37.85,0.062-55.083l89.425-154.355c6.564-11.328,10.034-24.239,10.034-37.334V55.5
			c4.435-0.9,7.771-4.82,7.771-9.519c0-5.366-4.348-9.714-9.714-9.714h-7.772c-2.324,0-4.488-0.927-6.093-2.61
			c-1.604-1.681-2.426-3.893-2.316-6.23c0.207-4.41,4.21-7.999,8.922-7.999h92.234c4.712,0,8.714,3.589,8.922,7.999
			c0.11,2.337-0.712,4.549-2.316,6.23c-1.605,1.683-3.769,2.61-6.093,2.61h-46.629c-5.366,0-9.714,4.348-9.714,9.714
			s4.348,9.714,9.714,9.714h36.915v162.542c0,13.095,3.47,26.006,10.034,37.334l89.425,154.355
			C402.36,427.162,402.383,447.754,392.437,465.012z"/>
	</g>
</g>
<g>
	<g>
		<path d="M374.394,417.337l-43.909-75.729c-2.689-4.642-8.638-6.221-13.276-3.532c-4.642,2.692-6.224,8.635-3.532,13.276
			l43.908,75.731c3.175,5.474,3.184,12.015,0.026,17.498c-3.158,5.484-8.825,8.758-15.152,8.758H169.542
			c-6.329,0-11.994-3.273-15.152-8.758c-3.158-5.482-3.15-12.024,0.026-17.499l41.101-70.886H289.7c5.366,0,9.714-4.348,9.714-9.714
			c0-5.366-4.348-9.714-9.714-9.714h-99.78c-3.465,0-6.665,1.844-8.404,4.842l-43.908,75.728
			c-6.702,11.558-6.721,25.367-0.052,36.943c6.668,11.577,18.627,18.487,31.986,18.487H342.46c13.359,0,25.318-6.911,31.986-18.487
			C381.115,442.701,381.096,428.891,374.394,417.337z"/>
	</g>
</g>
<g>
</g>
<g>
</g>
<g>
</g>
<g>
</g>
<g>
</g>
<g>
</g>
<g>
</g>
<g>
</g>
<g>
</g>
<g>
</g>
<g>
</g>
<g>
</g>
<g>
</g>
<g>
</g>
<g>
</g>
</svg>
