<?xml version="1.0" encoding="iso-8859-1"?>
<!-- Generator: Adobe Illustrator 19.0.0, SVG Export Plug-In . SVG Version: 6.00 Build 0)  -->
<svg version="1.1" id="Layer_1" xmlns="http://www.w3.org/2000/svg" xmlns:xlink="http://www.w3.org/1999/xlink" x="0px" y="0px"
	 viewBox="0 0 512 512" style="enable-background:new 0 0 512 512;" xml:space="preserve">
<g>
	<g>
		<path d="M330.667,0H181.333c-17.646,0-32,14.354-32,32c0,13.888,8.944,25.617,21.333,30.035v364.632
			C170.667,473.719,208.937,512,256,512s85.333-38.281,85.333-85.333V62.035c12.389-4.418,21.333-16.147,21.333-30.035
			C362.667,14.354,348.312,0,330.667,0z M320,426.667c0,35.292-28.708,64-64,64s-64-28.708-64-64V277.333h128V426.667z M320,256H192
			V64h128V256z M330.667,42.667H181.333c-5.875,0-10.667-4.781-10.667-10.667s4.792-10.667,10.667-10.667h149.333
			c5.875,0,10.667,4.781,10.667,10.667S336.542,42.667,330.667,42.667z"/>
	</g>
</g>
<g>
</g>
<g>
</g>
<g>
</g>
<g>
</g>
<g>
</g>
<g>
</g>
<g>
</g>
<g>
</g>
<g>
</g>
<g>
</g>
<g>
</g>
<g>
</g>
<g>
</g>
<g>
</g>
<g>
</g>
</svg>
