<?xml version="1.0" encoding="iso-8859-1"?>
<!-- Generator: Adobe Illustrator 19.0.0, SVG Export Plug-In . SVG Version: 6.00 Build 0)  -->
<svg version="1.1" id="Layer_1" xmlns="http://www.w3.org/2000/svg" xmlns:xlink="http://www.w3.org/1999/xlink" x="0px" y="0px"
	 viewBox="0 0 512 512" style="enable-background:new 0 0 512 512;" xml:space="preserve">
<g>
	<g>
		<path d="M426.667,384c-13.799,0-26.508,4.49-36.971,11.945l-66.564-66.564c11.234-14.452,18.202-32.369,18.202-52.048
			c0-43.4-32.688-78.938-74.667-84.255v-66.156C296.872,121.807,320,95.639,320,64c0-35.292-28.708-64-64-64s-64,28.708-64,64
			c0,31.639,23.128,57.807,53.333,62.922v66.156c-41.979,5.318-74.667,40.855-74.667,84.255c0,19.68,6.967,37.596,18.202,52.048
			l-66.564,66.564C111.841,388.49,99.133,384,85.333,384c-35.292,0-64,28.708-64,64c0,35.292,28.708,64,64,64
			c35.292,0,64-28.708,64-64c0-13.799-4.49-26.508-11.945-36.971l66.564-66.564c14.452,11.234,32.368,18.202,52.048,18.202
			s37.596-6.967,52.048-18.202l66.564,66.564c-7.456,10.464-11.945,23.172-11.945,36.971c0,35.292,28.708,64,64,64s64-28.708,64-64
			C490.667,412.708,461.958,384,426.667,384z M85.333,490.667c-23.531,0-42.667-19.135-42.667-42.667s19.135-42.667,42.667-42.667
			S128,424.469,128,448S108.865,490.667,85.333,490.667z M213.333,64c0-23.531,19.135-42.667,42.667-42.667
			S298.667,40.469,298.667,64S279.531,106.667,256,106.667S213.333,87.531,213.333,64z M256,341.333c-35.292,0-64-28.708-64-64
			c0-35.292,28.708-64,64-64s64,28.708,64,64C320,312.625,291.292,341.333,256,341.333z M426.667,490.667
			C403.135,490.667,384,471.531,384,448s19.135-42.667,42.667-42.667s42.667,19.135,42.667,42.667S450.198,490.667,426.667,490.667z
			"/>
	</g>
</g>
<g>
</g>
<g>
</g>
<g>
</g>
<g>
</g>
<g>
</g>
<g>
</g>
<g>
</g>
<g>
</g>
<g>
</g>
<g>
</g>
<g>
</g>
<g>
</g>
<g>
</g>
<g>
</g>
<g>
</g>
</svg>
