<?xml version="1.0" encoding="iso-8859-1"?>
<!-- Generator: Adobe Illustrator 19.0.0, SVG Export Plug-In . SVG Version: 6.00 Build 0)  -->
<svg version="1.1" id="Capa_1" xmlns="http://www.w3.org/2000/svg" xmlns:xlink="http://www.w3.org/1999/xlink" x="0px" y="0px"
	 viewBox="0 0 403.297 403.297" style="enable-background:new 0 0 403.297 403.297;" xml:space="preserve">
<g>
	<g>
		<path d="M382.624,315.233L191.648,124.769l6.656-6.656c2.048-2.048,2.048-5.12,0-7.168c-2.048-2.048-5.12-2.048-7.168,0
			l-87.04,87.04c-2.048,2.048-2.048,5.12,0,7.168c1.024,1.024,2.56,1.536,3.584,1.536c1.536,0,2.56-0.512,3.584-1.536l6.656-6.656
			l190.976,190.464c9.728,9.728,22.528,14.336,35.328,14.336c12.8,0,25.6-4.608,35.328-14.336l3.072-3.072
			C402.08,366.433,402.08,334.689,382.624,315.233z M374.944,378.721l-3.072,3.072c-15.36,15.36-40.448,15.36-55.808,0
			L125.088,190.817l58.88-58.88l36.864,36.864L202.4,187.745c-2.048,2.048-2.048,5.12,0,7.168c1.024,1.024,2.56,1.536,3.584,1.536
			c1.536,0,2.56-0.512,3.584-1.536L228,176.481l13.824,13.824l-18.432,18.432c-2.048,2.048-2.048,5.12,0,7.168
			c1.024,1.024,2.56,1.536,3.584,1.536c1.536,0,2.56-0.512,3.584-1.536l18.432-18.432l13.824,13.824l-18.432,18.432
			c-2.048,2.048-2.048,5.12,0,7.168c1.024,1.024,2.56,1.536,3.584,1.536c1.536,0,2.56-0.512,3.584-1.536l18.432-18.432
			l13.824,13.824l-18.432,18.432c-2.048,2.048-2.048,5.12,0,7.168c1.024,1.024,2.56,1.536,3.584,1.536
			c1.536,0,2.56-0.512,3.584-1.536l18.432-18.432l13.824,13.824l-18.432,18.432c-2.048,2.048-2.048,5.12,0,7.168
			c1.024,1.024,2.56,1.536,3.584,1.536c1.536,0,2.56-0.512,3.584-1.536l18.432-18.432l13.824,13.824l-18.432,18.432
			c-2.048,2.048-2.048,5.12,0,7.168c1.024,1.024,2.56,1.536,3.584,1.536c1.536,0,2.56-0.512,3.584-1.536l18.432-18.432
			l41.472,41.472C390.304,337.761,390.304,363.361,374.944,378.721z"/>
	</g>
</g>
<g>
	<g>
		<path d="M67.232,100.705c-7.168-15.872-26.112-23.04-42.496-15.872c-15.872,7.168-23.04,26.112-15.872,42.496
			c3.584,7.68,9.728,13.824,17.92,16.896c3.584,1.536,7.168,2.048,11.264,2.048c4.608,0,9.216-1.024,13.312-3.072
			c7.68-3.584,13.824-9.728,16.896-17.92C71.328,117.089,70.816,108.385,67.232,100.705z M47.264,133.985
			c-5.12,2.56-11.264,2.56-16.896,0.512c-5.632-1.536-10.24-5.632-12.288-11.264c-5.12-10.752,0-24.064,10.752-28.672
			c3.072-1.536,6.144-2.048,9.216-2.048c2.56,0,5.12,0.512,7.68,1.536c5.632,2.048,9.728,6.144,12.288,11.264
			C63.136,116.065,58.016,129.377,47.264,133.985z"/>
	</g>
</g>
<g>
	<g>
		<path d="M38.048,102.753c-1.024-2.56-4.096-3.584-6.656-2.56c-3.584,1.536-6.656,4.608-8.192,8.704
			c-1.024,4.096-1.024,8.192,0.512,12.288c1.024,2.048,2.56,3.072,4.608,3.072c0.512,0,1.536,0,2.048-0.512
			c3.072-1.536,4.096-4.608,2.56-7.168c-0.512-1.024-0.512-2.56,0-4.096s1.536-2.56,2.56-3.072
			C38.048,108.385,39.072,105.313,38.048,102.753z"/>
	</g>
</g>
<g>
	<g>
		<path d="M110.752,15.201c-6.144-12.8-21.504-18.944-34.304-12.8c-6.144,3.072-11.264,8.192-13.824,14.336
			c-2.56,6.656-2.048,13.312,0.512,19.968c3.072,6.144,8.192,11.264,14.336,13.824c3.072,1.024,6.144,1.536,9.216,1.536
			c3.584,0,7.168-1.024,10.752-2.56c6.144-3.072,11.264-8.192,13.824-14.336C113.824,28.513,113.312,21.857,110.752,15.201z
			 M101.024,31.585c-1.536,4.096-4.608,7.168-8.192,8.704s-8.192,2.048-12.288,0.512c-3.584-1.536-6.656-4.608-8.704-8.192
			c-1.536-3.584-2.048-8.192-0.512-12.288c1.536-4.096,4.608-7.168,8.192-8.704c2.048-1.024,4.096-1.536,6.656-1.536
			c6.144,0,11.776,3.584,14.336,9.216C102.048,22.881,102.56,27.489,101.024,31.585z"/>
	</g>
</g>
<g>
	<g>
		<path d="M87.712,16.737c-1.024-2.56-4.096-3.584-6.656-2.56C74.4,17.249,71.328,24.929,74.4,31.585
			c1.024,2.048,2.56,3.072,4.608,3.072c0.512,0,1.536,0,2.048-0.512c2.56-1.024,3.584-4.096,2.56-6.656
			c-0.512-1.536,0-3.072,1.536-3.584C87.712,22.369,89.248,19.297,87.712,16.737z"/>
	</g>
</g>
<g>
	<g>
		<path d="M68.256,198.497c-6.144-12.8-21.504-18.944-34.304-12.8s-18.944,21.504-12.8,34.304
			c4.608,9.728,13.824,15.36,23.552,15.36c3.584,0,7.168-0.512,10.752-2.56C68.256,226.657,74.4,211.297,68.256,198.497z
			 M51.36,223.585c-7.68,3.584-17.408,0-20.992-7.68s0-17.408,7.68-20.992s17.408,0,20.992,7.68
			C62.624,210.273,59.04,220.001,51.36,223.585z"/>
	</g>
</g>
<g>
	<g>
		<path d="M46.752,200.545c-2.048-3.584-4.608-4.608-7.168-3.072c-3.072,1.536-5.632,4.096-6.656,7.168s-1.024,6.656,0.512,10.24
			c1.024,2.048,2.56,3.072,4.608,3.072c0.512,0,1.536,0,2.048-0.512c2.56-1.024,3.584-4.096,2.56-6.656
			c-0.512-0.512-0.512-1.536,0-2.048c0.512-0.512,1.024-1.536,1.536-1.536C46.752,206.177,47.776,203.105,46.752,200.545z"/>
	</g>
</g>
<g>
	<g>
		<path d="M162.976,86.369c-8.192-17.408-28.672-25.088-46.08-17.408c-17.408,8.192-25.088,28.672-17.408,46.08
			c5.632,12.8,18.432,20.48,31.744,20.48c4.608,0,9.728-1.024,14.336-3.072C162.976,124.257,170.656,103.777,162.976,86.369z
			 M141.472,122.721c-12.288,5.632-27.136,0-32.256-12.288c-6.144-12.288-0.512-26.624,11.776-32.256
			c6.144-2.56,12.8-3.072,18.944-0.512c6.144,2.048,11.264,6.656,13.824,12.8C159.392,102.753,153.76,117.601,141.472,122.721z"/>
	</g>
</g>
<g>
	<g>
		<path d="M131.232,88.417c-1.024-2.56-4.096-3.584-6.656-2.56c-4.096,2.048-7.168,5.12-8.704,9.216
			c-1.536,4.096-1.536,8.704,0.512,12.8c0.512,1.536,2.56,2.56,4.608,2.56c0.512,0,1.536,0,2.048-0.512
			c2.56-1.024,3.584-4.096,2.56-6.656c-0.512-1.536-0.512-3.072,0-4.608s1.536-2.56,3.072-3.584
			C131.232,94.049,132.256,90.977,131.232,88.417z"/>
	</g>
</g>
<g>
	<g>
		<path d="M95.904,244.065c-12.288,0-22.528,10.24-22.528,22.528c0,12.288,10.24,22.528,22.528,22.528
			c12.288,0,22.528-10.24,22.528-22.528C118.432,254.305,108.192,244.065,95.904,244.065z M95.904,278.881
			c-6.656,0-12.288-5.632-12.288-12.288c0-6.656,5.632-12.288,12.288-12.288s12.288,5.632,12.288,12.288
			S102.56,278.881,95.904,278.881z"/>
	</g>
</g>
<g>
	<g>
		<path d="M200.352,19.297c-12.288,0-22.528,10.24-22.528,22.528c0,12.288,10.24,22.528,22.528,22.528
			c12.288,0,22.528-10.24,22.528-22.528C222.88,29.537,213.152,19.297,200.352,19.297z M200.352,54.113
			c-6.656,0-12.288-5.632-12.288-12.288c0-6.656,5.632-12.288,12.288-12.288c6.656,0,12.288,5.632,12.288,12.288
			C213.152,48.481,207.52,54.113,200.352,54.113z"/>
	</g>
</g>
<g>
	<g>
		<path d="M274.592,78.177c-12.288-0.512-22.528,9.728-22.528,22.528c0,12.288,10.24,22.528,22.528,22.528
			s22.528-10.24,22.528-22.528C297.12,88.417,286.88,78.177,274.592,78.177z M275.104,112.993c-6.656,0-12.288-5.632-12.288-12.288
			c0-6.656,5.632-12.288,12.288-12.288c6.656-0.512,12.288,5.12,12.288,12.288C287.392,107.361,281.76,112.993,275.104,112.993z"/>
	</g>
</g>
<g>
</g>
<g>
</g>
<g>
</g>
<g>
</g>
<g>
</g>
<g>
</g>
<g>
</g>
<g>
</g>
<g>
</g>
<g>
</g>
<g>
</g>
<g>
</g>
<g>
</g>
<g>
</g>
<g>
</g>
</svg>
