<?xml version="1.0" encoding="iso-8859-1"?>
<!-- Generator: Adobe Illustrator 19.0.0, SVG Export Plug-In . SVG Version: 6.00 Build 0)  -->
<svg version="1.1" id="Capa_1" xmlns="http://www.w3.org/2000/svg" xmlns:xlink="http://www.w3.org/1999/xlink" x="0px" y="0px"
	 viewBox="0 0 480 480" style="enable-background:new 0 0 480 480;" xml:space="preserve">
<g>
	<g>
		<path d="M480,40c0-10.688-4.168-20.736-11.72-28.28C460.736,4.168,450.688,0,440,0s-20.736,4.168-28.28,11.72l-50.912,50.904
			l-0.008-0.008c-9.368-9.352-24.6-9.344-33.936,0.008l-11.32,11.32c-9.352,9.352-9.352,24.568,0,33.936l5.664,5.664l-50.912,50.912
			l-56.568,56.568c-3.128,3.128-3.128,8.184,0,11.312l-22.624,22.624c-4.528,4.528-7.032,10.56-7.032,16.968
			c0,6.416,2.496,12.448,7.024,16.968c4.528,4.528,10.56,7.032,16.976,7.032c6.408,0,12.44-2.496,16.968-7.032l22.624-22.624
			c3.128,3.128,8.184,3.128,11.312,0l56.568-56.568l50.912-50.912l5.664,5.664c4.68,4.68,10.832,7.016,16.968,7.016
			c6.152,0,12.296-2.336,16.968-7.016l11.32-11.32c9.352-9.352,9.352-24.568,0-33.936l50.904-50.912
			C475.832,60.736,480,50.688,480,40z M253.32,249.304c-3.128-3.128-8.184-3.128-11.312,0l-28.28,28.28
			c-3.032,3.024-8.288,3.04-11.312-0.008c-1.512-1.504-2.344-3.504-2.344-5.648c0-2.136,0.832-4.144,2.344-5.656l28.28-28.28
			c3.128-3.128,3.128-8.184,0-11.312l45.256-45.256l22.624,22.624L253.32,249.304z M309.888,192.736l-22.624-22.624l45.256-45.256
			l22.624,22.624L309.888,192.736z M406.056,141.816l-11.32,11.32c-3.112,3.104-8.184,3.128-11.312-0.008l-11.312-11.312
			l-33.936-33.936l-11.312-11.312c-3.12-3.112-3.12-8.192-0.008-11.312l11.32-11.32c3.128-3.112,8.184-3.112,11.312,0l56.56,56.568
			C409.176,133.624,409.176,138.696,406.056,141.816z M456.968,56.968l-50.904,50.912L372.12,73.936l50.912-50.904
			c9.064-9.064,24.872-9.064,33.936,0C461.504,27.56,464,33.584,464,40S461.504,52.44,456.968,56.968z"/>
	</g>
</g>
<g>
	<g>
		<path d="M280,400H8c-4.424,0-8,3.576-8,8v16c0,10.416,6.712,19.216,16,22.528V456c0,13.232,10.768,24,24,24h208
			c13.232,0,24-10.768,24-24v-9.472c9.288-3.312,16-12.112,16-22.528v-16C288,403.576,284.424,400,280,400z M256,456
			c0,4.416-3.584,8-8,8H40c-4.416,0-8-3.584-8-8v-8h224V456z M272,424c0,4.416-3.584,8-8,8H24c-4.416,0-8-3.584-8-8v-8h256V424z"/>
	</g>
</g>
<g>
	<g>
		<path d="M176,320c-17.648,0-32,14.352-32,32s14.352,32,32,32s32-14.352,32-32S193.648,320,176,320z M176,368
			c-8.824,0-16-7.176-16-16c0-8.824,7.176-16,16-16c8.824,0,16,7.176,16,16C192,360.824,184.824,368,176,368z"/>
	</g>
</g>
<g>
	<g>
		<path d="M72,208c-13.232,0-24,10.768-24,24s10.768,24,24,24s24-10.768,24-24S85.232,208,72,208z M72,240c-4.416,0-8-3.584-8-8
			s3.584-8,8-8s8,3.584,8,8S76.416,240,72,240z"/>
	</g>
</g>
<g>
	<g>
		<polygon points="224,40 224,24 208,24 208,40 192,40 192,56 208,56 208,72 224,72 224,56 240,56 240,40 		"/>
	</g>
</g>
<g>
	<g>
		<rect x="80" y="80" width="16" height="16"/>
	</g>
</g>
<g>
	<g>
		<rect x="160" y="144" width="16" height="16"/>
	</g>
</g>
<g>
	<g>
		<path d="M472,192H360c-4.424,0-8,3.576-8,8v32c0,10.416,6.712,19.216,16,22.528V296v40h-24c-13.232,0-24,10.768-24,24v120h16V360
			c0-4.416,3.584-8,8-8h24v80c0,26.472,21.528,48,48,48s48-21.528,48-48V296v-41.472c9.288-3.312,16-12.112,16-22.528v-32
			C480,195.576,476.424,192,472,192z M448,432c0,17.648-14.352,32-32,32s-32-14.352-32-32v-80h32v-16h-32v-32h64V432z M448,288h-64
			v-32h64V288z M464,232c0,4.416-3.584,8-8,8h-80c-4.416,0-8-3.584-8-8v-24h96V232z"/>
	</g>
</g>
<g>
</g>
<g>
</g>
<g>
</g>
<g>
</g>
<g>
</g>
<g>
</g>
<g>
</g>
<g>
</g>
<g>
</g>
<g>
</g>
<g>
</g>
<g>
</g>
<g>
</g>
<g>
</g>
<g>
</g>
</svg>
