<?xml version="1.0" encoding="iso-8859-1"?>
<!-- Generator: Adobe Illustrator 19.0.0, SVG Export Plug-In . SVG Version: 6.00 Build 0)  -->
<svg version="1.1" id="Layer_1" xmlns="http://www.w3.org/2000/svg" xmlns:xlink="http://www.w3.org/1999/xlink" x="0px" y="0px"
	 viewBox="0 0 512 512" style="enable-background:new 0 0 512 512;" xml:space="preserve">
<g>
	<path style="fill:#D1D4D1;" d="M328.533,164.693c-0.853,0-2.56,0-3.413-0.853l-178.347-76.8c-4.267-1.707-5.973-6.827-4.267-11.093
		c1.707-4.267,6.827-5.973,11.093-4.267l178.347,76.8c4.267,1.707,5.973,6.827,4.267,11.093
		C334.507,162.987,331.093,164.693,328.533,164.693"/>
	<path style="fill:#D1D4D1;" d="M199.68,369.493c-2.56,0-5.12-0.853-6.827-2.56c-3.413-3.413-2.56-9.387,0.853-11.947
		l150.187-128.853c3.413-3.413,9.387-2.56,11.947,0.853c3.413,3.413,2.56,9.387-0.853,11.947l-150.187,128
		C203.093,368.64,201.387,369.493,199.68,369.493"/>
</g>
<path style="fill:#3B97D3;" d="M136.533,324.267c-52.053,0-93.867,41.813-93.867,93.867S84.48,512,136.533,512
	s93.867-41.813,93.867-93.867S188.587,324.267,136.533,324.267"/>
<path style="fill:#71C285;" d="M102.4,0C69.12,0,42.667,26.453,42.667,59.733s26.453,59.733,59.733,59.733
	s59.733-26.453,59.733-59.733S135.68,0,102.4,0"/>
<path style="fill:#F29C1F;" d="M392.533,102.4c-42.667,0-76.8,34.133-76.8,76.8s34.133,76.8,76.8,76.8s76.8-34.133,76.8-76.8
	S435.2,102.4,392.533,102.4"/>
<path style="fill:#2D769E;" d="M85.333,426.667c-5.12,0-8.533-3.413-8.533-8.533c0-33.28,26.453-59.733,59.733-59.733
	c5.12,0,8.533,3.413,8.533,8.533s-3.413,8.533-8.533,8.533c-23.893,0-42.667,18.773-42.667,42.667
	C93.867,423.253,90.453,426.667,85.333,426.667"/>
<path style="fill:#599967;" d="M85.333,68.267c-5.12,0-8.533-3.413-8.533-8.533c0-14.507,11.093-25.6,25.6-25.6
	c5.12,0,8.533,3.413,8.533,8.533S107.52,51.2,102.4,51.2c-5.12,0-8.533,3.413-8.533,8.533S90.453,68.267,85.333,68.267"/>
<path style="fill:#DB8B28;" d="M358.4,187.733c-5.12,0-8.533-3.413-8.533-8.533c0-23.893,18.773-42.667,42.667-42.667
	c5.12,0,8.533,3.413,8.533,8.533c0,5.12-3.413,8.533-8.533,8.533c-14.507,0-25.6,11.093-25.6,25.6
	C366.933,184.32,363.52,187.733,358.4,187.733"/>
<g>
</g>
<g>
</g>
<g>
</g>
<g>
</g>
<g>
</g>
<g>
</g>
<g>
</g>
<g>
</g>
<g>
</g>
<g>
</g>
<g>
</g>
<g>
</g>
<g>
</g>
<g>
</g>
<g>
</g>
</svg>
