<?xml version="1.0" encoding="iso-8859-1"?>
<!-- Generator: Adobe Illustrator 19.0.0, SVG Export Plug-In . SVG Version: 6.00 Build 0)  -->
<svg version="1.1" id="Layer_1" xmlns="http://www.w3.org/2000/svg" xmlns:xlink="http://www.w3.org/1999/xlink" x="0px" y="0px"
	 viewBox="0 0 478.107 478.107" style="enable-background:new 0 0 478.107 478.107;" xml:space="preserve">
<polygon style="fill:#ACDCE2;" points="300.36,257.403 454.779,310.817 477.488,478.107 246.111,478.107 "/>
<polygon style="fill:#E2F5F7;" points="177.755,257.403 23.328,310.817 0.619,478.107 231.996,478.107 "/>
<polygon style="fill:#CEEEF2;" points="152.139,368.649 23.328,310.817 0.619,478.107 231.996,478.107 "/>
<polygon style="fill:#C3E4EA;" points="420.238,325.846 300.36,257.403 287.953,307.839 190.154,307.839 177.755,257.403 
	57.868,325.846 70.259,478.107 185.207,478.107 231.996,478.107 246.111,478.107 295.082,478.107 407.848,478.107 "/>
<polygon style="fill:#E2F5F7;" points="141.403,262.642 121.388,351.257 181.442,369.965 154.865,432.98 239.046,476.799 
	239.046,430.365 "/>
<polygon style="fill:#CEEEF2;" points="336.712,262.642 356.703,351.257 296.65,369.965 323.226,432.98 239.046,476.799 
	239.046,430.365 "/>
<polygon style="fill:#F9BDA0;" points="298.461,287.123 179.646,287.123 187.57,188.677 290.545,188.677 "/>
<polygon style="fill:#E28F71;" points="298.461,287.123 238.864,287.123 179.646,188.677 290.545,188.677 "/>
<path style="fill:#FCCCB9;" d="M319.272,109.924c0,69.782-35.17,132.923-80.211,132.923c-45.064,0-80.211-63.141-80.211-132.923
	c0-69.79,35.147-81.408,80.211-81.408C284.102,28.516,319.272,40.134,319.272,109.924z"/>
<path style="fill:#F9BDA0;" d="M239.061,28.516c45.04,0,80.211,11.618,80.211,81.408c0,69.782-35.17,132.923-80.211,132.923"/>
<polygon style="fill:#6B767C;" points="237.108,427.718 166.113,331.368 140.489,262.642 176.597,247.502 239.061,287.044 
	301.51,247.502 337.633,262.642 312.002,331.368 241.007,427.718 239.006,431.129 "/>
<g>
	<polyline style="fill:#4E595E;" points="239.061,287.044 301.51,247.502 337.633,262.642 312.002,331.368 241.007,427.718 
		239.006,431.129 237.108,427.718 	"/>
	<polygon style="fill:#4E595E;" points="176.597,247.502 237.171,288.273 166.129,325.547 	"/>
</g>
<polygon style="fill:#454F54;" points="301.51,247.502 240.944,288.273 312.002,325.547 "/>
<g>
	<path style="fill:#071519;" d="M159.3,99.353c-4.261-1.867-11.296-22.386-7.538-30.941c3.781-8.57,18.172-6.105,22.418-4.23
		c4.277,1.875,7.814,12.587,0.922,18.897"/>
	<path style="fill:#071519;" d="M318.792,99.164c4.277-1.883,11.351-22.394,7.593-30.948c-3.742-8.546-18.125-6.073-22.394-4.191
		c-4.269,1.883-7.83,12.611-0.937,18.897"/>
	<path style="fill:#071519;" d="M251.263,53.911c0,0,15.588,32.65,74.004,33.965c0,0,21.843-63.504-63.504-75.319L251.263,53.911z"
		/>
</g>
<path style="fill:#23343A;" d="M288.339,37.165c0,0-4.923,64-132.923,39.385c0,0-22.646-7.877-19.692-26.585
	c0,0,4.923,17.723,17.723,2.954c0,0,18.211-55.304,72.373-52.838C279.974,2.546,288.339,37.165,288.339,37.165z"/>
<path style="fill:#071519;" d="M288.339,37.165c0,0-4.923,64-132.923,39.385c0,0-22.646-7.877-19.692-26.585
	c0,0,4.923,17.723,17.723,2.954"/>
<polygon style="fill:#23343A;" points="244.835,284.799 261.125,399.661 239.061,423.583 216.974,399.661 233.288,284.799 "/>
<g>
	<polyline style="fill:#071519;" points="233.288,292.676 244.835,292.676 261.125,399.661 239.061,423.583 	"/>
	<polygon style="fill:#071519;" points="233.532,303.475 230.121,292.999 239.046,286.516 247.97,292.999 244.559,303.475 	"/>
</g>
<g>
</g>
<g>
</g>
<g>
</g>
<g>
</g>
<g>
</g>
<g>
</g>
<g>
</g>
<g>
</g>
<g>
</g>
<g>
</g>
<g>
</g>
<g>
</g>
<g>
</g>
<g>
</g>
<g>
</g>
</svg>
