<?xml version="1.0" encoding="iso-8859-1"?>
<!-- Generator: Adobe Illustrator 19.0.0, SVG Export Plug-In . SVG Version: 6.00 Build 0)  -->
<svg version="1.1" id="Layer_1" xmlns="http://www.w3.org/2000/svg" xmlns:xlink="http://www.w3.org/1999/xlink" x="0px" y="0px"
	 viewBox="0 0 512 512" style="enable-background:new 0 0 512 512;" xml:space="preserve">
<path style="fill:#D1D4D1;" d="M329.332,240.11l-104.165-34.428l4.414-8.828c4.414-8.828,7.062-18.538,7.062-28.248
	c0-8.828-1.766-17.655-6.179-25.6l-3.531-7.945L399.953,51.2l3.531,7.945c5.297,11.476,15.89,20.303,27.365,23.834l8.828,2.648
	l-37.959,125.352l-7.945-2.648c-24.717-7.062-50.317,4.414-61.793,26.483L329.332,240.11z M250.766,195.09l70.621,23.834
	c15.007-22.952,42.372-35.31,69.738-30.014l28.248-92.69c-10.593-4.414-19.421-12.359-25.6-22.069l-142.124,68.855
	c2.648,7.945,4.414,16.772,4.414,25.6C255.18,177.434,253.415,186.262,250.766,195.09z"/>
<path style="fill:#F3D55B;" d="M256.063,167.724c0-38.841-31.779-70.621-70.621-70.621s-70.621,31.779-70.621,70.621
	s31.779,70.621,70.621,70.621S256.063,206.566,256.063,167.724"/>
<path style="fill:#DBC052;" d="M150.132,176.552c-5.297,0-8.828-3.531-8.828-8.828c0-24.717,19.421-44.138,44.138-44.138
	c5.297,0,8.828,3.531,8.828,8.828c0,5.297-3.531,8.828-8.828,8.828c-15.007,0-26.483,11.476-26.483,26.483
	C158.96,173.021,155.429,176.552,150.132,176.552z"/>
<path style="fill:#F29C1F;" d="M370.822,308.966c34.428,0,61.793-27.366,61.793-61.793s-27.366-61.793-61.793-61.793
	s-61.793,27.366-61.793,61.793S336.394,308.966,370.822,308.966"/>
<path style="fill:#DD8B1D;" d="M344.339,256c-5.297,0-8.828-3.531-8.828-8.828c0-19.421,15.89-35.31,35.31-35.31
	c5.297,0,8.828,3.531,8.828,8.828s-3.531,8.828-8.828,8.828c-9.71,0-17.655,7.945-17.655,17.655
	C353.167,252.469,349.635,256,344.339,256z"/>
<path style="fill:#71C285;" d="M485.58,52.966C485.58,23.834,461.746,0,432.615,0c-29.131,0-52.966,23.834-52.966,52.966
	s23.835,52.966,52.966,52.966C461.746,105.931,485.58,82.097,485.58,52.966"/>
<path style="fill:#60A06E;" d="M414.96,61.793c-5.297,0-8.828-3.531-8.828-8.828c0-15.007,11.476-26.483,26.483-26.483
	c5.297,0,8.828,3.531,8.828,8.828s-3.531,8.828-8.828,8.828s-8.828,3.531-8.828,8.828S420.256,61.793,414.96,61.793z"/>
<path style="fill:#FDC794;" d="M505.884,346.041c7.062-5.297,7.945-15.89,2.648-22.952c-11.476-15.007-20.303-19.421-58.262,0.883
	l-76.8,46.786c-23.834,12.359-84.745,8.828-111.228,8.828c0,0,62.676,4.414,37.959-32.662
	c-12.359-18.538-33.545-29.131-56.497-29.131h-34.428c-20.303,0-39.724-6.179-55.614-18.538
	c-37.959-28.248-109.462,27.366-109.462,27.366v158.897h123.586c17.655,0,35.31-1.766,52.966-4.414l114.759-17.655
	c3.531,0,7.945-0.883,11.476-0.883l0,0c9.71-0.883,17.655-6.179,24.717-12.359L505.884,346.041z"/>
<polygon style="fill:#2872C9;" points="0.063,512 44.201,512 44.201,300.138 0.063,300.138 "/>
<path style="fill:#F9A671;" d="M141.304,414.897c-5.297,0-8.828-3.531-8.828-8.828c0-22.069,16.772-35.31,44.138-35.31h85.628
	c5.297,0,8.828,3.531,8.828,8.828s-3.531,8.828-8.828,8.828h-85.628c-26.483,0-26.483,13.241-26.483,17.655
	C150.132,411.366,146.601,414.897,141.304,414.897z"/>
<g>
</g>
<g>
</g>
<g>
</g>
<g>
</g>
<g>
</g>
<g>
</g>
<g>
</g>
<g>
</g>
<g>
</g>
<g>
</g>
<g>
</g>
<g>
</g>
<g>
</g>
<g>
</g>
<g>
</g>
</svg>
