<?xml version="1.0" encoding="iso-8859-1"?>
<!-- Generator: Adobe Illustrator 19.0.0, SVG Export Plug-In . SVG Version: 6.00 Build 0)  -->
<svg version="1.1" id="Layer_1" xmlns="http://www.w3.org/2000/svg" xmlns:xlink="http://www.w3.org/1999/xlink" x="0px" y="0px"
	 viewBox="0 0 512 512" style="enable-background:new 0 0 512 512;" xml:space="preserve">
<path style="fill:#A3DDE9;" d="M399.473,56.264l-14.066,303.824c20.199,0,36.571-16.373,36.571-36.571V56.264H399.473z"/>
<path style="fill:#C4F5FF;" d="M399.473,56.264v267.253c0,20.199-6.302,36.571-14.066,36.571c-20.199,0-36.571-16.373-36.571-36.571
	V56.264H399.473z"/>
<path style="fill:#82C8DB;" d="M424.791,64.703h-78.769c-4.662,0-8.44-3.779-8.44-8.44s3.778-8.44,8.44-8.44h78.769
	c4.662,0,8.44,3.779,8.44,8.44S429.453,64.703,424.791,64.703z"/>
<path style="fill:#A3DDE9;" d="M270.066,56.264L256,360.088c20.199,0,36.571-16.373,36.571-36.571V56.264H270.066z"/>
<path style="fill:#C4F5FF;" d="M270.066,56.264v267.253c0,20.199-6.302,36.571-14.066,36.571c-20.199,0-36.571-16.373-36.571-36.571
	V56.264H270.066z"/>
<path style="fill:#82C8DB;" d="M295.385,64.703h-78.769c-4.662,0-8.44-3.779-8.44-8.44s3.778-8.44,8.44-8.44h78.769
	c4.662,0,8.44,3.779,8.44,8.44S300.047,64.703,295.385,64.703z"/>
<path style="fill:#A3DDE9;" d="M140.659,56.264l-14.066,303.824c20.199,0,36.571-16.373,36.571-36.571V56.264H140.659z"/>
<path style="fill:#C4F5FF;" d="M140.659,56.264v267.253c0,20.199-6.302,36.571-14.066,36.571c-20.199,0-36.571-16.373-36.571-36.571
	V56.264H140.659z"/>
<path style="fill:#82C8DB;" d="M165.978,64.703H87.209c-4.662,0-8.44-3.779-8.44-8.44s3.778-8.44,8.44-8.44h78.769
	c4.662,0,8.44,3.779,8.44,8.44S170.64,64.703,165.978,64.703z"/>
<g>
	<rect x="25.319" y="403.692" style="fill:#F77A20;" width="461.363" height="16.879"/>
	<rect x="25.319" y="199.736" style="fill:#F77A20;" width="461.363" height="16.879"/>
</g>
<rect y="174.418" style="fill:#F79A30;" width="33.758" height="289.758"/>
<rect x="478.242" y="174.418" style="fill:#EA5A20;" width="33.758" height="289.758"/>
<g>
</g>
<g>
</g>
<g>
</g>
<g>
</g>
<g>
</g>
<g>
</g>
<g>
</g>
<g>
</g>
<g>
</g>
<g>
</g>
<g>
</g>
<g>
</g>
<g>
</g>
<g>
</g>
<g>
</g>
</svg>
