<?xml version="1.0" encoding="iso-8859-1"?>
<!-- Generator: Adobe Illustrator 19.0.0, SVG Export Plug-In . SVG Version: 6.00 Build 0)  -->
<svg version="1.1" id="Layer_1" xmlns="http://www.w3.org/2000/svg" xmlns:xlink="http://www.w3.org/1999/xlink" x="0px" y="0px"
	 viewBox="0 0 512 512" style="enable-background:new 0 0 512 512;" xml:space="preserve">
<path style="fill:#82C8DB;" d="M418.909,0l-46.545,512h34.909c25.6,0,46.545-20.945,46.545-46.545V0H418.909z"/>
<path style="fill:#A3DDE9;" d="M58.182,0l34.909,81.455v384c0,25.6,20.945,46.545,46.545,46.545h232.727
	c25.6,0,46.545-20.945,46.545-46.545V0H58.182z"/>
<path style="fill:#FFFFFF;" d="M183.273,125.091c4.82,0,8.727-3.907,8.727-8.727s-3.908-8.727-8.727-8.727h-37.818V55.273h37.818
	c4.82,0,8.727-3.907,8.727-8.727s-3.908-8.727-8.727-8.727h-46.545c-4.82,0-8.727,3.907-8.727,8.727v418.909
	c0,4.82,3.907,8.727,8.727,8.727h46.545c4.82,0,8.727-3.907,8.727-8.727c0-4.82-3.908-8.727-8.727-8.727h-37.818v-52.364h37.818
	c4.82,0,8.727-3.908,8.727-8.727c0-4.82-3.908-8.727-8.727-8.727h-37.818v-52.364h37.818c4.82,0,8.727-3.908,8.727-8.727
	c0-4.82-3.908-8.727-8.727-8.727h-37.818v-52.364h37.818c4.82,0,8.727-3.908,8.727-8.727s-3.908-8.727-8.727-8.727h-37.818v-52.364
	h37.818c4.82,0,8.727-3.908,8.727-8.727s-3.908-8.727-8.727-8.727h-37.818v-52.364H183.273z"/>
<g>
</g>
<g>
</g>
<g>
</g>
<g>
</g>
<g>
</g>
<g>
</g>
<g>
</g>
<g>
</g>
<g>
</g>
<g>
</g>
<g>
</g>
<g>
</g>
<g>
</g>
<g>
</g>
<g>
</g>
</svg>
