<?xml version="1.0" encoding="iso-8859-1"?>
<!-- Generator: Adobe Illustrator 19.0.0, SVG Export Plug-In . SVG Version: 6.00 Build 0)  -->
<svg version="1.1" id="Layer_1" xmlns="http://www.w3.org/2000/svg" xmlns:xlink="http://www.w3.org/1999/xlink" x="0px" y="0px"
	 viewBox="0 0 512 512" style="enable-background:new 0 0 512 512;" xml:space="preserve">
<path style="fill:#82C8DB;" d="M413.538,0l-45.011,512h33.758c24.756,0,45.011-20.255,45.011-45.011V0H413.538z"/>
<path style="fill:#A3DDE9;" d="M413.538,0H64.703l33.758,78.769v388.22c0,24.756,20.255,45.011,45.011,45.011h225.055
	c24.756,0,45.011-20.255,45.011-45.011l-22.505-120.742l22.505-120.742V0z"/>
<path style="fill:#146A8A;" d="M379.78,236.78l-33.848,109.512l33.848,120.697c-0.022,0.034,33.668,0.09,33.668,0.09
	c0.034-0.022,0.068-0.056,0.09-0.09V225.505C396.896,225.505,388.119,230.996,379.78,236.78z"/>
<g>
	<path style="fill:#2089B0;" d="M379.78,238.806v228.183c-0.022,0.034-0.056,0.068-0.09,0.09L379.78,238.806z"/>
	<path style="fill:#2089B0;" d="M343.209,249.969c-35.165,0-35.165-24.463-70.33-24.463s-35.165,24.463-70.33,24.463
		s-35.165-24.463-70.33-24.463v241.484c0.023,0.034,0.056,0.068,0.09,0.09h247.47V236.761
		C370.494,243.184,361.727,249.969,343.209,249.969z"/>
</g>
<g>
</g>
<g>
</g>
<g>
</g>
<g>
</g>
<g>
</g>
<g>
</g>
<g>
</g>
<g>
</g>
<g>
</g>
<g>
</g>
<g>
</g>
<g>
</g>
<g>
</g>
<g>
</g>
<g>
</g>
</svg>
