<?xml version="1.0" encoding="iso-8859-1"?>
<!-- Generator: Adobe Illustrator 19.0.0, SVG Export Plug-In . SVG Version: 6.00 Build 0)  -->
<svg version="1.1" id="Layer_1" xmlns="http://www.w3.org/2000/svg" xmlns:xlink="http://www.w3.org/1999/xlink" x="0px" y="0px"
	 viewBox="0 0 512 512" style="enable-background:new 0 0 512 512;" xml:space="preserve">
<path style="fill:#EDEEF0;" d="M352.896,66.33l-22.933-22.933l-108.13,108.13c-27.687-7.548-56.867-8.221-85.005-1.891
	c-32.361,7.279-61.915,23.579-85.472,47.134c-68.474,68.474-68.474,179.89,0,248.365s179.89,68.474,248.365,0
	c23.556-23.556,39.855-53.111,47.134-85.472c6.33-28.139,5.656-57.317-1.891-85.005l108.129-108.13l-22.933-22.933L352.896,66.33z"
	/>
<path style="fill:#DCDEE2;" d="M346.857,359.664c6.33-28.139,5.656-57.317-1.891-85.005l108.129-108.13l-22.933-22.933
	l-38.633-38.633L51.357,445.135c68.474,68.474,179.89,68.474,248.365,0C323.278,421.579,339.577,392.023,346.857,359.664z"/>
<rect x="274.109" y="118.644" transform="matrix(0.7071 0.7071 -0.7071 0.7071 201.699 -215.5264)" style="fill:#D8D9DD;" width="173.808" height="34.13"/>
<rect x="348.291" y="149.363" transform="matrix(0.7071 0.7071 -0.7071 0.7071 232.4218 -228.2606)" style="fill:#B7B9C0;" width="86.909" height="34.13"/>
<rect x="274.255" y="85.734" transform="matrix(0.7071 0.7071 -0.7071 0.7071 191.7223 -239.0408)" style="fill:#EDEEF0;" width="220.308" height="52.349"/>
<rect x="397.279" y="96.026" transform="matrix(-0.7071 0.7071 -0.7071 -0.7071 829.629 -41.7125)" style="fill:#DCDEE2;" width="52.35" height="109.879"/>
<path style="fill:#F74D37;" d="M221.379,185.351l9.525,3.2l20.461-20.461l125.416,29.116l-68.611,68.611l3.2,9.525
	c8.367,24.903,9.736,51.64,3.959,77.318c-5.929,26.361-19.217,50.448-38.426,69.656c-55.829,55.829-146.669,55.829-202.499-0.001
	c-55.829-55.829-55.829-146.669,0-202.498c19.209-19.209,43.295-32.495,69.655-38.426
	C169.739,175.615,196.474,176.984,221.379,185.351z"/>
<path style="fill:#B03727;" d="M276.904,422.317c19.209-19.209,32.495-43.295,38.426-69.656c5.777-25.679,4.408-52.414-3.959-77.318
	l-3.2-9.525l68.611-68.611l-62.708-14.557L74.405,422.317C130.235,478.146,221.075,478.146,276.904,422.317z"/>
<circle style="fill:#FFFFFF;" cx="86.89" cy="338.39" r="18.19"/>
<circle style="fill:#EDEEF0;" cx="316.28" cy="216.16" r="12.865"/>
<g>
	<circle style="fill:#FFFFFF;" cx="233.58" cy="228.08" r="12.865"/>
	<circle style="fill:#FFFFFF;" cx="126.5" cy="255.69" r="12.865"/>
</g>
<g>
	<circle style="fill:#EDEEF0;" cx="117.54" cy="414.9" r="12.865"/>
	<circle style="fill:#EDEEF0;" cx="218.13" cy="407.56" r="18.19"/>
	<circle style="fill:#EDEEF0;" cx="245.07" cy="313.1" r="18.19"/>
</g>
<path style="fill:#F74D37;" d="M469.964,270.096c0,0,42.037,46.612,42.037,79.521c0,23.217-18.82,42.037-42.037,42.037
	s-42.037-18.82-42.037-42.037C427.926,316.708,469.964,270.096,469.964,270.096z"/>
<path style="fill:#B03727;" d="M469.964,270.096c0,0,42.037,46.612,42.037,79.521c0,23.217-18.82,42.037-42.037,42.037
	C469.964,361.308,469.964,270.096,469.964,270.096z"/>
<g>
</g>
<g>
</g>
<g>
</g>
<g>
</g>
<g>
</g>
<g>
</g>
<g>
</g>
<g>
</g>
<g>
</g>
<g>
</g>
<g>
</g>
<g>
</g>
<g>
</g>
<g>
</g>
<g>
</g>
</svg>
